<?xml version="1.0" encoding="UTF-8" standalone="no"?>
<svg
   xmlns:dc="http://purl.org/dc/elements/1.1/"
   xmlns:cc="http://creativecommons.org/ns#"
   xmlns:rdf="http://www.w3.org/1999/02/22-rdf-syntax-ns#"
   xmlns:svg="http://www.w3.org/2000/svg"
   xmlns="http://www.w3.org/2000/svg"
   xmlns:xlink="http://www.w3.org/1999/xlink"
   xmlns:sodipodi="http://sodipodi.sourceforge.net/DTD/sodipodi-0.dtd"
   xmlns:inkscape="http://www.inkscape.org/namespaces/inkscape"
   inkscape:export-ydpi="1024"
   inkscape:export-xdpi="1024"
   inkscape:export-filename="C:\Users\Hendrik\Downloads\logo1.png"
   stroke="currentColor"
   fill="currentColor"
   stroke-width="0"
   viewBox="0 0 169 24"
   height="24"
   width="169"
   data-darkreader-inline-fill=""
   data-darkreader-inline-stroke=""
   version="1.1"
   id="svg8"
   sodipodi:docname="logo_text.svg"
   inkscape:version="1.0 (4035a4fb49, 2020-05-01)">
  <metadata
     id="metadata14">
    <rdf:RDF>
      <cc:Work
         rdf:about="">
        <dc:format>image/svg+xml</dc:format>
        <dc:type
           rdf:resource="http://purl.org/dc/dcmitype/StillImage" />
        <dc:title></dc:title>
      </cc:Work>
    </rdf:RDF>
  </metadata>
  <defs
     id="defs12">
    <linearGradient
       inkscape:collect="always"
       id="linearGradient921">
      <stop
         style="stop-color:#21aefd;stop-opacity:1;"
         offset="0"
         id="stop917" />
      <stop
         style="stop-color:#21aefd;stop-opacity:0;"
         offset="1"
         id="stop919" />
    </linearGradient>
    <linearGradient
       inkscape:collect="always"
       id="linearGradient910">
      <stop
         style="stop-color:#b721ff;stop-opacity:1"
         offset="0"
         id="stop906" />
      <stop
         style="stop-color:#21aefd;stop-opacity:1"
         offset="1"
         id="stop908" />
    </linearGradient>
    <linearGradient
       id="linearGradient873"
       inkscape:collect="always">
      <stop
         id="stop869"
         offset="0"
         style="stop-color:#b721ff;stop-opacity:1" />
      <stop
         id="stop871"
         offset="1"
         style="stop-color:#21aefd;stop-opacity:1" />
    </linearGradient>
    <linearGradient
       inkscape:collect="always"
       xlink:href="#linearGradient910"
       id="linearGradient867"
       x1="2.9201386"
       y1="12.903484"
       x2="21.119793"
       y2="12.544108"
       gradientUnits="userSpaceOnUse"
       gradientTransform="matrix(1.1400818,0,0,1.1400818,-1.4622303,-1.0252276)" />
    <linearGradient
       inkscape:collect="always"
       xlink:href="#linearGradient873"
       id="linearGradient904"
       x1="2.9201386"
       y1="12.903484"
       x2="21.119793"
       y2="12.544108"
       gradientUnits="userSpaceOnUse"
       gradientTransform="matrix(1.1400818,0,0,1.1400818,-1.4622303,-1.0252276)" />
    <linearGradient
       inkscape:collect="always"
       xlink:href="#linearGradient921"
       id="linearGradient923"
       x1="26.504606"
       y1="12.371093"
       x2="136.94746"
       y2="12.371093"
       gradientUnits="userSpaceOnUse" />
  </defs>
  <sodipodi:namedview
     inkscape:document-rotation="0"
     pagecolor="#97ffff"
     bordercolor="#666666"
     borderopacity="1"
     objecttolerance="10"
     gridtolerance="10"
     guidetolerance="10"
     inkscape:pageopacity="0"
     inkscape:pageshadow="2"
     inkscape:window-width="1920"
     inkscape:window-height="1009"
     id="namedview10"
     showgrid="false"
     inkscape:snap-object-midpoints="false"
     inkscape:zoom="2.8284271"
     inkscape:cx="116.97642"
     inkscape:cy="-18.719881"
     inkscape:window-x="1358"
     inkscape:window-y="58"
     inkscape:window-maximized="1"
     inkscape:current-layer="svg8" />
  <g
     id="g6"
     transform="matrix(1,0,0,0.99999223,-0.21875,-0.09374911)">
    <path
       d="M 22.479486,0.11485409 V 13.795835 A 10.260736,10.260736 0 1 1 6.9458725,4.9921239 L 14.498915,0.63131114 V 3.7893375 Z M 12.218751,8.0954265 a 5.7004091,5.7004091 0 1 0 0,11.4008175 5.7004091,5.7004091 0 0 0 0,-11.4008175 z"
       id="path4"
       style="fill:url(#linearGradient904);fill-opacity:1;fill-rule:nonzero;stroke:url(#linearGradient867);stroke-width:0" />
  </g>
  <g
     style="font-style:normal;font-weight:normal;font-size:26.6667px;line-height:1.25;font-family:sans-serif;letter-spacing:0px;word-spacing:0px;fill:#ffffff;fill-opacity:1;stroke:#b721ff;stroke-opacity:1"
     id="text68"
     aria-label="CLIPTURE">
    <path
       id="path22"
       style="font-style:normal;font-variant:normal;font-weight:normal;font-stretch:normal;font-size:26.6667px;font-family:Bungee;-inkscape-font-specification:Bungee;fill:#ffffff;fill-opacity:1;stroke:#b721ff;stroke-opacity:1"
       d="m 39.893999,21.707043 h -6.506675 q -3.333337,0 -4.960006,-1.333335 -1.600002,-1.333335 -1.600002,-4.106672 V 7.973692 q 0,-2.7733368 1.600002,-4.1066718 1.626669,-1.3600018 4.960006,-1.3600018 h 6.506675 q 0.506667,0 0.720001,0.2400003 0.24,0.2133336 0.24,0.7200009 v 3.2266708 q 0,0.5066673 -0.24,0.7466676 -0.213334,0.2133336 -0.720001,0.2133336 h -5.360007 q -0.826667,0 -1.226668,0.3466671 -0.4,0.3200004 -0.4,0.9866679 v 6.3466744 q 0,0.666668 0.4,0.986668 0.400001,0.293334 1.226668,0.293334 h 5.360007 q 0.506667,0 0.720001,0.24 0.24,0.213334 0.24,0.720001 v 3.173337 q 0,0.506668 -0.24,0.746668 -0.213334,0.213334 -0.720001,0.213334 z" />
    <path
       id="path24"
       style="font-style:normal;font-variant:normal;font-weight:normal;font-stretch:normal;font-size:26.6667px;font-family:Bungee;-inkscape-font-specification:Bungee;fill:#ffffff;fill-opacity:1;stroke:#b721ff;stroke-opacity:1"
       d="m 58.424856,21.707043 h -13.57335 q -0.506668,0 -0.746668,-0.213334 -0.213333,-0.24 -0.213333,-0.746668 V 3.4670196 q 0,-0.5066673 0.213333,-0.7200009 0.24,-0.2400003 0.746668,-0.2400003 h 4.133338 q 0.506668,0 0.720001,0.2400003 0.240001,0.2133336 0.240001,0.7200009 V 16.667036 h 3.653337 v -4.320005 q 0,-0.506667 0.213334,-0.720001 0.24,-0.24 0.746668,-0.24 h 3.866671 q 0.506668,0 0.720001,0.24 0.24,0.213334 0.24,0.720001 v 8.40001 q 0,0.506668 -0.24,0.746668 -0.213333,0.213334 -0.720001,0.213334 z" />
    <path
       id="path26"
       style="font-style:normal;font-variant:normal;font-weight:normal;font-stretch:normal;font-size:26.6667px;font-family:Bungee;-inkscape-font-specification:Bungee;fill:#ffffff;fill-opacity:1;stroke:#b721ff;stroke-opacity:1"
       d="m 62.966529,21.707043 q -0.506667,0 -0.746667,-0.213334 -0.213334,-0.24 -0.213334,-0.746668 v -3.173337 q 0,-0.506667 0.213334,-0.720001 0.24,-0.24 0.746667,-0.24 h 2.640004 V 7.6536916 h -2.640004 q -0.506667,0 -0.746667,-0.2133336 Q 62.006528,7.2003577 62.006528,6.6936904 V 3.4670196 q 0,-0.5066673 0.213334,-0.7200009 0.24,-0.2400003 0.746667,-0.2400003 h 11.360015 q 0.506667,0 0.720001,0.2400003 0.24,0.2133336 0.24,0.7200009 v 3.2266708 q 0,0.5066673 -0.24,0.7466676 -0.213334,0.2133336 -0.720001,0.2133336 h -2.58667 v 8.9600114 h 2.58667 q 0.506667,0 0.720001,0.24 0.24,0.213334 0.24,0.720001 v 3.173337 q 0,0.506668 -0.24,0.746668 -0.213334,0.213334 -0.720001,0.213334 z" />
    <path
       id="path28"
       style="font-style:normal;font-variant:normal;font-weight:normal;font-stretch:normal;font-size:26.6667px;font-family:Bungee;-inkscape-font-specification:Bungee;fill:#ffffff;fill-opacity:1;stroke:#b721ff;stroke-opacity:1"
       d="m 83.672386,21.707043 h -4.133338 q -0.506668,0 -0.746668,-0.213334 -0.213333,-0.24 -0.213333,-0.746668 V 3.4670196 q 0,-0.5066673 0.213333,-0.7200009 0.24,-0.2400003 0.746668,-0.2400003 h 8.16001 q 3.626671,0 4.960006,1.4400019 1.333335,1.4400018 1.333335,3.7600047 v 3.413338 q 0,2.320003 -1.333335,3.760004 -1.333335,1.440002 -4.960006,1.440002 h -3.066671 v 4.426672 q 0,0.506668 -0.24,0.746668 -0.213333,0.213334 -0.720001,0.213334 z M 84.579054,7.4936914 v 4.0266716 h 2.400003 q 0.773334,0 1.013335,-0.4 0.24,-0.400001 0.24,-0.906668 V 8.8003597 q 0,-0.5066673 -0.24,-0.9066678 -0.240001,-0.4000005 -1.013335,-0.4000005 z" />
    <path
       id="path30"
       style="font-style:normal;font-variant:normal;font-weight:normal;font-stretch:normal;font-size:26.6667px;font-family:Bungee;-inkscape-font-specification:Bungee;fill:#ffffff;fill-opacity:1;stroke:#b721ff;stroke-opacity:1"
       d="m 105.82283,21.707043 h -4.32 q -0.50667,0 -0.74667,-0.213334 -0.21333,-0.24 -0.21333,-0.746668 V 7.6536916 h -3.920008 q -0.506668,0 -0.746668,-0.2133336 Q 95.662821,7.2003577 95.662821,6.6936904 V 3.4670196 q 0,-0.5066673 0.213333,-0.7200009 0.24,-0.2400003 0.746668,-0.2400003 h 14.080018 q 0.50667,0 0.72,0.2400003 0.24,0.2133336 0.24,0.7200009 v 3.2266708 q 0,0.5066673 -0.24,0.7466676 -0.21333,0.2133336 -0.72,0.2133336 h -3.92001 V 20.747041 q 0,0.506668 -0.24,0.746668 -0.21333,0.213334 -0.72,0.213334 z" />
    <path
       id="path32"
       style="font-style:normal;font-variant:normal;font-weight:normal;font-stretch:normal;font-size:26.6667px;font-family:Bungee;-inkscape-font-specification:Bungee;fill:#ffffff;fill-opacity:1;stroke:#b721ff;stroke-opacity:1"
       d="m 130.60287,16.667036 q 0,1.226669 -0.37334,2.240003 -0.34667,0.986668 -1.28,1.706669 -0.90667,0.693334 -2.50667,1.093335 -1.6,0.4 -4.08,0.4 -2.48001,0 -4.08001,-0.4 -1.6,-0.400001 -2.53334,-1.093335 -0.90666,-0.720001 -1.28,-1.706669 -0.34667,-1.013334 -0.34667,-2.240003 V 3.4670196 q 0,-0.5066673 0.21334,-0.7200009 0.24,-0.2400003 0.74667,-0.2400003 h 4.18667 q 0.50667,0 0.72,0.2400003 0.24,0.2133336 0.24,0.7200009 V 15.627035 q 0,0.533334 0.4,0.906668 0.4,0.346667 1.78667,0.346667 1.41333,0 1.81333,-0.346667 0.4,-0.373334 0.4,-0.906668 V 3.4670196 q 0,-0.5066673 0.21334,-0.7200009 0.24,-0.2400003 0.74667,-0.2400003 h 4.05333 q 0.50667,0 0.72001,0.2400003 0.24,0.2133336 0.24,0.7200009 z" />
    <path
       id="path34"
       style="font-style:normal;font-variant:normal;font-weight:normal;font-stretch:normal;font-size:26.6667px;font-family:Bungee;-inkscape-font-specification:Bungee;fill:#ffffff;fill-opacity:1;stroke:#b721ff;stroke-opacity:1"
       d="m 140.17871,7.3070245 v 3.4133375 h 2 q 0.69334,0 0.93334,-0.346667 0.24,-0.373334 0.24,-0.9066678 V 8.5603594 q 0,-0.533334 -0.24,-0.8800011 -0.24,-0.3733338 -0.93334,-0.3733338 z m -0.96,14.4000185 h -4.10667 q -0.50667,0 -0.74667,-0.213334 -0.21333,-0.24 -0.21333,-0.746668 V 3.4670196 q 0,-0.5066673 0.21333,-0.7200009 0.24,-0.2400003 0.74667,-0.2400003 h 8.88001 q 2.98667,0 4.10667,1.2533349 1.14667,1.2266683 1.14667,3.2000041 v 1.2266682 q 0,1.1200014 -0.34667,1.9200024 -0.32,0.773334 -1.14667,1.120001 1.44001,0.160001 2.32001,1.173335 0.90666,1.013335 0.90666,2.693337 v 5.65334 q 0,0.506668 -0.24,0.746668 -0.21333,0.213334 -0.72,0.213334 h -4.13333 q -0.50667,0 -0.74667,-0.213334 -0.21334,-0.24 -0.21334,-0.746668 v -4.080005 q 0,-0.586667 -0.24,-0.853334 -0.21333,-0.293334 -0.77333,-0.293334 h -3.73334 v 5.226673 q 0,0.506668 -0.24,0.746668 -0.21333,0.213334 -0.72,0.213334 z" />
    <path
       id="path36"
       style="font-style:normal;font-variant:normal;font-weight:normal;font-stretch:normal;font-size:26.6667px;font-family:Bungee;-inkscape-font-specification:Bungee;fill:#ffffff;fill-opacity:1;stroke:#b721ff;stroke-opacity:1"
       d="m 167.27707,21.707043 h -12.37334 q -0.50667,0 -0.74667,-0.213334 -0.21334,-0.24 -0.21334,-0.746668 V 3.4670196 q 0,-0.5066673 0.21334,-0.7200009 0.24,-0.2400003 0.74667,-0.2400003 h 12.37334 q 0.50667,0 0.72001,0.2400003 0.24,0.2133336 0.24,0.7200009 v 3.120004 q 0,0.5066673 -0.24,0.7466676 -0.21334,0.2133336 -0.72001,0.2133336 h -7.36001 v 2.0533359 h 5.20001 q 0.50667,0 0.72,0.2400003 0.24,0.213334 0.24,0.720001 v 2.853337 q 0,0.506667 -0.24,0.746667 -0.21333,0.213334 -0.72,0.213334 h -5.20001 v 2.293336 h 7.36001 q 0.50667,0 0.72001,0.240001 0.24,0.213333 0.24,0.720001 v 3.120003 q 0,0.506668 -0.24,0.746668 -0.21334,0.213334 -0.72001,0.213334 z" />
  </g>
</svg>
